<svg width="26" height="26" viewBox="0 0 26 26" fill="none" xmlns="http://www.w3.org/2000/svg">
<g id="Size=L">
<path id="Vector" d="M9.74984 23.8334C10.3481 23.8334 10.8332 23.3484 10.8332 22.7501C10.8332 22.1518 10.3481 21.6667 9.74984 21.6667C9.15153 21.6667 8.6665 22.1518 8.6665 22.7501C8.6665 23.3484 9.15153 23.8334 9.74984 23.8334Z" stroke="#F8F8F8" stroke-width="2" stroke-linecap="round" stroke-linejoin="round"/>
<path id="Vector_2" d="M21.6668 23.8334C22.2651 23.8334 22.7502 23.3484 22.7502 22.7501C22.7502 22.1518 22.2651 21.6667 21.6668 21.6667C21.0685 21.6667 20.5835 22.1518 20.5835 22.7501C20.5835 23.3484 21.0685 23.8334 21.6668 23.8334Z" stroke="#F8F8F8" stroke-width="2" stroke-linecap="round" stroke-linejoin="round"/>
<path id="Vector_3" d="M1.0835 1.08325H5.41683L8.32016 15.5891C8.41923 16.0878 8.69056 16.5359 9.08667 16.8547C9.48278 17.1736 9.97842 17.343 10.4868 17.3333H21.0168C21.5252 17.343 22.0209 17.1736 22.417 16.8547C22.8131 16.5359 23.0844 16.0878 23.1835 15.5891L24.9168 6.49992H6.50016" stroke="#F8F8F8" stroke-width="2" stroke-linecap="round" stroke-linejoin="round"/>
</g>
</svg>
