<svg width="360" height="457" viewBox="0 0 360 457" fill="none" xmlns="http://www.w3.org/2000/svg">
<path fill-rule="evenodd" clip-rule="evenodd" d="M0 0H360V42V336V368H359.948C360.009 369.799 360.016 371.58 359.97 373.341C359.89 376.377 359.69 379.385 359.37 382.365C359.05 385.345 358.57 388.268 357.93 391.136C357.29 394.003 356.491 396.814 355.531 399.569C354.571 402.268 353.411 404.882 352.051 407.412C350.692 409.998 349.132 412.472 347.372 414.833C345.612 417.138 343.653 419.359 341.493 421.496C339.333 423.632 336.974 425.656 334.414 427.568C331.935 429.479 329.215 431.278 326.256 432.965C323.376 434.652 320.297 436.226 317.017 437.688C313.818 439.206 310.458 440.583 306.939 441.82C303.419 443.113 299.74 444.322 295.901 445.446C292.141 446.571 288.262 447.583 284.263 448.482C280.263 449.438 276.144 450.281 271.905 451.012C267.665 451.799 263.386 452.502 259.067 453.121C254.668 453.683 250.228 454.217 245.749 454.723C241.19 455.173 236.631 455.538 232.071 455.819C227.512 456.157 222.873 456.41 218.154 456.578C213.514 456.747 208.875 456.859 204.236 456.916C199.517 457.028 194.798 457.028 190.078 456.916C185.439 456.859 180.8 456.747 176.161 456.578C171.441 456.353 166.762 456.072 162.123 455.735C157.564 455.398 153.004 455.004 148.445 454.554C143.886 454.048 139.367 453.458 134.888 452.783C130.408 452.109 126.009 451.378 121.69 450.591C117.29 449.747 112.971 448.792 108.732 447.723C104.573 446.711 100.453 445.615 96.3739 444.434C92.2946 443.197 88.2953 441.876 84.3759 440.471C80.5366 439.009 76.7772 437.463 73.0978 435.832C69.3384 434.202 65.739 432.431 62.2996 430.519C58.8602 428.664 55.5407 426.668 52.3413 424.532C49.0618 422.451 45.9423 420.231 42.9828 417.869C40.0233 415.508 37.2238 413.034 34.5842 410.448C31.9447 407.862 29.4251 405.191 27.0255 402.436C24.6259 399.681 22.3863 396.842 20.3066 393.919C18.227 390.995 16.2673 387.987 14.4276 384.895C12.6679 381.859 11.0682 378.767 9.6284 375.618C8.10865 372.47 6.78887 369.265 5.66905 366.004C4.54924 362.8 3.5894 359.567 2.78954 356.306C1.98967 353.045 1.34977 349.784 0.869855 346.523C0.469922 343.262 0.189968 340.03 0.0299949 336.825C0.0232444 336.55 0.0176333 336.275 0.0131617 336H0V334.385V0Z" fill="#F2E6DE"/>
</svg>
