<svg width="26" height="26" viewBox="0 0 26 26" fill="none" xmlns="http://www.w3.org/2000/svg">
<g id="Property 1=Default" clip-path="url(#clip0_259_1629)">
<path id="Vector" d="M13.0002 4.76327L11.8351 3.48581C9.10011 0.487149 4.0852 1.52195 2.2749 5.29193C1.425 7.06513 1.23324 9.62525 2.78516 12.8926C4.28021 16.0386 7.39055 19.8068 13.0002 23.9113C18.6099 19.8068 21.7186 16.0386 23.2153 12.8926C24.7672 9.62352 24.5771 7.06513 23.7256 5.29193C21.9152 1.52195 16.9003 0.485416 14.1654 3.48407L13.0002 4.76327ZM13.0002 26C-11.9167 8.43792 5.32837 -5.26923 12.7142 1.98128C12.8117 2.07719 12.9071 2.17599 13.0002 2.27768C13.0918 2.17535 13.1872 2.07704 13.2862 1.98301C20.6705 -5.2727 37.9171 8.43619 13.0002 26Z" fill="#1F1F1D"/>
</g>
<defs>
<clipPath id="clip0_259_1629">
<rect width="26" height="26" fill="white"/>
</clipPath>
</defs>
</svg>
