<svg xmlns="http://www.w3.org/2000/svg" width="27" height="18" fill="none" viewBox="0 0 27 18">
  <path fill="#1F1F1D" fill-rule="evenodd" d="M0 16.714c0-.34.119-.668.33-.909.21-.241.497-.376.795-.376h24.75c.298 0 .584.135.796.376.21.241.329.568.329.91 0 .34-.119.667-.33.908a1.059 1.059 0 0 1-.795.377H1.125c-.298 0-.585-.136-.795-.377a1.384 1.384 0 0 1-.33-.909ZM0 9c0-.341.119-.668.33-.91.21-.24.497-.376.795-.376h24.75c.298 0 .584.136.796.377.21.241.329.568.329.909 0 .341-.119.668-.33.91a1.059 1.059 0 0 1-.795.376H1.125c-.298 0-.585-.136-.795-.377A1.385 1.385 0 0 1 0 9Zm0-7.714C0 .945.119.618.33.376.54.137.827 0 1.125 0h24.75c.298 0 .584.135.796.377.21.24.329.568.329.909 0 .34-.119.668-.33.909a1.059 1.059 0 0 1-.795.376H1.125c-.298 0-.585-.135-.795-.376a1.385 1.385 0 0 1-.33-.91Z" clip-rule="evenodd"/>
</svg>
