<svg width="26" height="26" viewBox="0 0 26 26" fill="none" xmlns="http://www.w3.org/2000/svg">
<g id="Twitter" clip-path="url(#clip0_2342_1315)">
<path id="Vector" d="M8.16725 24.3749C17.979 24.3749 23.3464 16.245 23.3464 9.20716C23.3485 8.97857 23.3453 8.74999 23.3366 8.52141C24.3813 7.76455 25.2831 6.82808 26 5.75566C25.0236 6.1851 23.9893 6.46871 22.9304 6.59741C24.0461 5.93068 24.8817 4.88143 25.2817 3.64478C24.2341 4.2667 23.0867 4.70267 21.8904 4.93341C21.0863 4.07707 20.0223 3.50977 18.8631 3.31939C17.704 3.129 16.5144 3.32615 15.4787 3.8803C14.4429 4.43445 13.6188 5.31468 13.134 6.38463C12.6492 7.45458 12.5307 8.65455 12.7969 9.79866C10.6757 9.6928 8.60055 9.14201 6.7061 8.18205C4.81164 7.22208 3.14027 5.87441 1.8005 4.22653C1.12057 5.40164 0.913169 6.79141 1.22039 8.11383C1.5276 9.43625 2.32642 10.5923 3.45475 11.3473C2.60879 11.3199 1.78131 11.0928 1.04 10.6843V10.7574C1.04207 11.9882 1.46871 13.1805 2.2479 14.1332C3.02709 15.0858 4.11112 15.7405 5.317 15.9867C4.85919 16.1128 4.38625 16.1757 3.91138 16.1735C3.57649 16.177 3.24214 16.146 2.91363 16.0809C3.25389 17.1409 3.91751 18.0677 4.81136 18.7313C5.7052 19.3949 6.78441 19.762 7.8975 19.781C6.00617 21.2646 3.67127 22.0698 1.2675 22.0674C0.84386 22.0706 0.420463 22.0462 0 21.9943C2.43981 23.5502 5.27356 24.3762 8.16725 24.3749Z" fill="#F8F8F8"/>
</g>
<defs>
<clipPath id="clip0_2342_1315">
<rect width="26" height="26" fill="white"/>
</clipPath>
</defs>
</svg>
