<svg xmlns="http://www.w3.org/2000/svg" width="26" height="26" fill="none" viewBox="0 0 26 26">
  <g clip-path="url(#a)">
    <path fill="#1F1F1D" d="M13 13a6.5 6.5 0 1 0 0-13 6.5 6.5 0 0 0 0 13Zm4.333-6.5a4.333 4.333 0 1 1-8.666 0 4.333 4.333 0 0 1 8.666 0ZM26 23.833C26 26 23.833 26 23.833 26H2.167S0 26 0 23.833c0-2.166 2.167-8.666 13-8.666s13 6.5 13 8.666Zm-2.167-.008c-.002-.533-.333-2.137-1.802-3.606-1.413-1.412-4.072-2.886-9.031-2.886-4.96 0-7.618 1.474-9.03 2.886-1.47 1.47-1.799 3.073-1.803 3.606h21.666Z"/>
  </g>
  <defs>
    <clipPath id="a">
      <path fill="#fff" d="M0 0h26v26H0z"/>
    </clipPath>
  </defs>
</svg>
