<svg width="26" height="26" viewBox="0 0 26 26" fill="none" xmlns="http://www.w3.org/2000/svg">
<g id="Youtube">
<path id="Vector" d="M13.0829 3.24829H13.2275C14.5632 3.25317 21.3314 3.30192 23.1562 3.79267C23.7079 3.94244 24.2106 4.23438 24.6141 4.6393C25.0176 5.04423 25.3078 5.54797 25.4556 6.10017C25.6197 6.71767 25.7351 7.53504 25.8131 8.37842L25.8294 8.54742L25.8651 8.96992L25.8781 9.13892C25.9837 10.6242 25.9967 12.0152 25.9984 12.319V12.4409C25.9967 12.7562 25.9821 14.2414 25.8651 15.7884L25.8521 15.959L25.8375 16.128C25.7562 17.0575 25.636 17.9805 25.4556 18.6598C25.3078 19.212 25.0176 19.7157 24.6141 20.1207C24.2106 20.5256 23.7079 20.8175 23.1562 20.9673C21.2712 21.4743 14.1066 21.51 13.1137 21.5117H12.883C12.3809 21.5117 10.3041 21.5019 8.12662 21.4272L7.85037 21.4174L7.709 21.4109L7.43112 21.3995L7.15325 21.3882C5.3495 21.3085 3.63187 21.1802 2.8405 20.9657C2.28902 20.816 1.78644 20.5243 1.38296 20.1197C0.979473 19.7151 0.6892 19.2117 0.541125 18.6598C0.36075 17.9822 0.2405 17.0575 0.15925 16.128L0.14625 15.9574L0.13325 15.7884C0.0525906 14.6873 0.00814989 13.5839 0 12.4799L0 12.28C0.00325 11.9307 0.01625 10.7233 0.104 9.39079L0.115375 9.22342L0.12025 9.13892L0.13325 8.96992L0.169 8.54742L0.18525 8.37842C0.26325 7.53504 0.378625 6.71604 0.54275 6.10017C0.690577 5.54797 0.980739 5.04423 1.38424 4.6393C1.78774 4.23438 2.29045 3.94244 2.84212 3.79267C3.6335 3.58142 5.35112 3.45142 7.15487 3.37017L7.43112 3.35879L7.71062 3.34904L7.85037 3.34417L8.12825 3.33279C9.67478 3.28307 11.2219 3.25544 12.7692 3.24992L13.0829 3.24829ZM10.4 8.46454V16.2938L17.1551 12.3808L10.4 8.46454Z" fill="#F8F8F8"/>
</g>
</svg>
